<svg width="52" height="52" viewBox="0 0 52 52" fill="none" xmlns="http://www.w3.org/2000/svg">
<path fill-rule="evenodd" clip-rule="evenodd" d="M4.33928 21.3333H47.6607C47.6259 16.8329 47.388 14.3623 45.7628 12.7371C43.859 10.8333 40.7949 10.8333 34.6666 10.8333H17.3333C11.2051 10.8333 8.14092 10.8333 6.23712 12.7371C4.61197 14.3623 4.3741 16.8329 4.33928 21.3333ZM47.6666 26.3333H4.33331V30.3333C4.33331 36.4616 4.33331 39.5257 6.23712 41.4295C8.14092 43.3333 11.205 43.3333 17.3333 43.3333H17.3333H34.6666H34.6667C40.7949 43.3333 43.859 43.3333 45.7628 41.4295C47.6666 39.5257 47.6666 36.4616 47.6666 30.3333V30.3333V26.3333ZM15.1666 32.1666C13.7859 32.1666 12.6666 33.2859 12.6666 34.6666C12.6666 36.0474 13.7859 37.1666 15.1666 37.1666H15.1883C16.569 37.1666 17.6883 36.0474 17.6883 34.6666C17.6883 33.2859 16.569 32.1666 15.1883 32.1666H15.1666Z" fill="white"/>
</svg>
