<svg width="18" height="19" viewBox="0 0 18 19" fill="none" xmlns="http://www.w3.org/2000/svg">
<g clip-path="url(#clip0_220_787)">
<path d="M12.7435 2.09912H5.24522C3.17463 2.09912 1.49609 3.76801 1.49609 5.82668V13.2818C1.49609 15.3405 3.17463 17.0094 5.24522 17.0094H12.7435C14.814 17.0094 16.4926 15.3405 16.4926 13.2818V5.82668C16.4926 3.76801 14.814 2.09912 12.7435 2.09912Z" stroke="#1E2532" stroke-width="2" stroke-linecap="round" stroke-linejoin="round"/>
<path d="M11.9935 9.08516C12.086 9.70561 11.9794 10.3393 11.6889 10.896C11.3983 11.4528 10.9386 11.9043 10.3751 12.1862C9.81159 12.4682 9.173 12.5664 8.55015 12.4668C7.9273 12.3671 7.35191 12.0747 6.90582 11.6312C6.45973 11.1877 6.16566 10.6156 6.06544 9.99634C5.96521 9.37707 6.06394 8.74215 6.34757 8.18188C6.6312 7.62161 7.08529 7.16453 7.64526 6.87564C8.20523 6.58676 8.84255 6.48078 9.46659 6.57279C10.1031 6.66663 10.6924 6.96154 11.1475 7.41395C11.6025 7.86636 11.8991 8.45228 11.9935 9.08516Z" stroke="#1E2532" stroke-width="2" stroke-linecap="round" stroke-linejoin="round"/>
<ellipse cx="13.1172" cy="5.45176" rx="1.125" ry="1.11827" fill="white"/>
</g>
<defs>
<clipPath id="clip0_220_787">
<rect width="17.9958" height="17.8923" fill="white" transform="translate(-0.00390625 0.606934)"/>
</clipPath>
</defs>
</svg>
