<svg width="54" height="54" viewBox="0 0 54 54" fill="none" xmlns="http://www.w3.org/2000/svg">
<path fill-rule="evenodd" clip-rule="evenodd" d="M49.5 27C49.5 39.4264 39.4264 49.5 27 49.5C14.5736 49.5 4.5 39.4264 4.5 27C4.5 14.5736 14.5736 4.5 27 4.5C39.4264 4.5 49.5 14.5736 49.5 27ZM20.127 17.6296C20.0225 17.0769 19.6869 16.5712 19.1615 16.2679C18.8207 16.0712 18.4461 15.9861 18.08 16.0014C17.6916 15.9855 17.2945 16.0824 16.94 16.304C16.4082 16.6364 16.0866 17.1777 16.015 17.755C14.529 20.6057 13.75 23.7768 13.75 27C13.75 30.5107 14.6741 33.9596 16.4295 37C16.9818 37.9566 18.205 38.2843 19.1615 37.7321C20.1181 37.1798 20.4459 35.9566 19.8936 35C18.4893 32.5677 17.75 29.8086 17.75 27C17.75 25.4482 17.9757 23.9116 18.4145 22.4368L27.123 36.3704C27.2275 36.9231 27.5631 37.4288 28.0885 37.7321C28.4293 37.9288 28.8039 38.0139 29.17 37.9986C29.5584 38.0145 29.9555 37.9176 30.31 37.696C30.8418 37.3636 31.1634 36.8223 31.235 36.245C32.721 33.3943 33.5 30.2232 33.5 27C33.5 23.4893 32.5759 20.0404 30.8205 17C30.2682 16.0434 29.045 15.7157 28.0885 16.2679C27.1319 16.8202 26.8041 18.0434 27.3564 19C28.7607 21.4323 29.5 24.1914 29.5 27C29.5 28.5518 29.2743 30.0884 28.8355 31.5632L20.127 17.6296ZM35.4521 15.625C34.8998 14.6684 35.2275 13.4452 36.1841 12.8929C37.1407 12.3407 38.3639 12.6684 38.9162 13.625C41.264 17.6915 42.5 22.3044 42.5 27C42.5 31.6956 41.264 36.3085 38.9162 40.375C38.3639 41.3316 37.1407 41.6593 36.1841 41.1071C35.2275 40.5548 34.8998 39.3316 35.4521 38.375C37.4488 34.9166 38.5 30.9935 38.5 27C38.5 23.0065 37.4488 19.0834 35.4521 15.625Z" fill="white"/>
</svg>
