<svg width="127" height="12" viewBox="0 0 127 12" fill="none" xmlns="http://www.w3.org/2000/svg">
<path d="M8.442 8.06C8.442 9.81 7.042 11.14 4.606 11.14C2.184 11.14 0.714 9.81 0.588 7.808H2.156C2.226 9.082 3.038 9.908 4.578 9.908C5.852 9.908 6.804 9.306 6.804 8.27C6.804 7.43 6.258 7.01 5.096 6.758L3.64 6.478C2.226 6.198 0.938 5.484 0.938 3.776C0.938 2.082 2.422 0.807999 4.508 0.807999C6.594 0.807999 8.176 2.082 8.302 4.084H6.734C6.65 2.88 5.782 2.04 4.522 2.04C3.22 2.04 2.506 2.81 2.506 3.678C2.506 4.63 3.332 4.966 4.27 5.162L5.754 5.456C7.476 5.806 8.442 6.562 8.442 8.06ZM11.5268 11H10.1128V3.58H11.4288V4.812C11.9328 3.958 12.7308 3.44 13.7528 3.44C14.8448 3.44 15.6708 4 16.0068 4.98C16.5248 4.028 17.3788 3.44 18.5128 3.44C20.0388 3.44 21.0188 4.434 21.0188 6.198V11H19.6048V6.646C19.6048 5.414 19.0588 4.686 18.0228 4.686C17.0568 4.686 16.2728 5.498 16.2728 6.744V11H14.8588V6.646C14.8588 5.414 14.3128 4.686 13.2768 4.686C12.2968 4.686 11.5268 5.498 11.5268 6.744V11ZM27.4037 11V9.852C26.9417 10.678 26.1157 11.14 25.0237 11.14C23.4837 11.14 22.4757 10.258 22.4757 8.9C22.4757 7.444 23.6377 6.688 25.8497 6.688C26.2837 6.688 26.6337 6.702 27.2357 6.772V6.226C27.2357 5.162 26.6617 4.56 25.6817 4.56C24.6457 4.56 24.0157 5.176 23.9737 6.212H22.6857C22.7557 4.546 23.9457 3.44 25.6817 3.44C27.5157 3.44 28.5797 4.476 28.5797 6.24V11H27.4037ZM23.8197 8.858C23.8197 9.628 24.3937 10.132 25.3037 10.132C26.4937 10.132 27.2357 9.39 27.2357 8.256V7.654C26.6897 7.584 26.2977 7.57 25.9337 7.57C24.5197 7.57 23.8197 7.99 23.8197 8.858ZM31.8842 7.206V11H30.4702V3.58H31.7862V5.148C32.3042 4.126 33.4242 3.482 34.6422 3.482V4.952C33.0462 4.868 31.8842 5.568 31.8842 7.206ZM40.3984 9.628V10.874C39.9644 11.07 39.5864 11.14 39.1384 11.14C37.7664 11.14 36.8144 10.398 36.8144 8.76V4.784H35.1764V3.58H36.8144V1.382H38.2284V3.58H40.4684V4.784H38.2284V8.438C38.2284 9.46 38.7184 9.824 39.4744 9.824C39.8104 9.824 40.1044 9.768 40.3984 9.628ZM49.2377 11.21C46.4377 11.21 44.2677 8.928 44.2677 5.96C44.2677 3.006 46.4377 0.737999 49.2377 0.737999C51.7577 0.737999 53.7737 2.418 54.1517 4.896H52.5137C52.2337 3.272 50.9177 2.124 49.2517 2.124C47.2637 2.124 45.8637 3.734 45.8637 5.96C45.8637 8.214 47.2637 9.824 49.2517 9.824C50.9177 9.824 52.2337 8.662 52.5137 7.038H54.1517C53.7737 9.53 51.7577 11.21 49.2377 11.21ZM58.7482 11.14C56.6482 11.14 55.1082 9.488 55.1082 7.29C55.1082 5.092 56.6482 3.44 58.7482 3.44C60.8482 3.44 62.3882 5.092 62.3882 7.29C62.3882 9.488 60.8482 11.14 58.7482 11.14ZM58.7482 9.894C59.9662 9.894 60.9322 8.914 60.9322 7.29C60.9322 5.666 59.9662 4.7 58.7482 4.7C57.5302 4.7 56.5782 5.666 56.5782 7.29C56.5782 8.914 57.5302 9.894 58.7482 9.894ZM65.2436 6.814V11H63.8296V3.58H65.1456V4.812C65.6496 3.986 66.4896 3.44 67.5116 3.44C69.0376 3.44 70.0456 4.42 70.0456 6.198V11H68.6316V6.674C68.6316 5.4 68.0716 4.686 67.0216 4.686C66.0556 4.686 65.2436 5.498 65.2436 6.814ZM73.3374 6.814V11H71.9234V3.58H73.2394V4.812C73.7434 3.986 74.5834 3.44 75.6054 3.44C77.1314 3.44 78.1394 4.42 78.1394 6.198V11H76.7254V6.674C76.7254 5.4 76.1654 4.686 75.1154 4.686C74.1494 4.686 73.3374 5.498 73.3374 6.814ZM83.0691 11.14C80.9271 11.14 79.4851 9.586 79.4851 7.248C79.4851 5.05 80.9831 3.44 83.0271 3.44C85.2391 3.44 86.7091 5.232 86.4571 7.64H80.9271C81.0391 9.152 81.7951 10.034 83.0411 10.034C84.0911 10.034 84.8191 9.46 85.0571 8.494H86.4571C86.0931 10.146 84.8191 11.14 83.0691 11.14ZM82.9991 4.504C81.8651 4.504 81.0951 5.316 80.9411 6.702H84.9591C84.8891 5.33 84.1471 4.504 82.9991 4.504ZM90.7498 11.154C88.7198 11.154 87.2918 9.558 87.2918 7.29C87.2918 5.05 88.7478 3.44 90.7498 3.44C92.5838 3.44 93.9137 4.658 94.1798 6.59H92.6958C92.5418 5.4 91.7998 4.686 90.7638 4.686C89.5458 4.686 88.7478 5.722 88.7478 7.29C88.7478 8.872 89.5458 9.894 90.7638 9.894C91.8138 9.894 92.5418 9.194 92.7098 7.99H94.1798C93.9278 9.95 92.6118 11.154 90.7498 11.154ZM99.789 9.628V10.874C99.355 11.07 98.977 11.14 98.529 11.14C97.157 11.14 96.205 10.398 96.205 8.76V4.784H94.567V3.58H96.205V1.382H97.619V3.58H99.859V4.784H97.619V8.438C97.619 9.46 98.109 9.824 98.865 9.824C99.201 9.824 99.495 9.768 99.789 9.628ZM102.931 1.858C102.931 2.39 102.511 2.796 101.909 2.796C101.307 2.796 100.873 2.39 100.873 1.858C100.873 1.312 101.307 0.92 101.909 0.92C102.511 0.92 102.931 1.312 102.931 1.858ZM102.623 11H101.209V3.58H102.623V11ZM107.693 11.14C105.593 11.14 104.053 9.488 104.053 7.29C104.053 5.092 105.593 3.44 107.693 3.44C109.793 3.44 111.333 5.092 111.333 7.29C111.333 9.488 109.793 11.14 107.693 11.14ZM107.693 9.894C108.911 9.894 109.877 8.914 109.877 7.29C109.877 5.666 108.911 4.7 107.693 4.7C106.475 4.7 105.523 5.666 105.523 7.29C105.523 8.914 106.475 9.894 107.693 9.894ZM114.189 6.814V11H112.775V3.58H114.091V4.812C114.595 3.986 115.435 3.44 116.457 3.44C117.983 3.44 118.991 4.42 118.991 6.198V11H117.577V6.674C117.577 5.4 117.017 4.686 115.967 4.686C115.001 4.686 114.189 5.498 114.189 6.814ZM126.749 8.788C126.749 10.244 125.615 11.14 123.641 11.14C121.681 11.14 120.519 10.174 120.379 8.578H121.737C121.793 9.502 122.535 10.076 123.669 10.076C124.663 10.076 125.321 9.726 125.321 9.026C125.321 8.41 124.943 8.144 124.019 7.962L122.815 7.738C121.443 7.472 120.673 6.772 120.673 5.652C120.673 4.35 121.807 3.44 123.529 3.44C125.307 3.44 126.511 4.392 126.637 5.918H125.279C125.195 5.022 124.537 4.504 123.543 4.504C122.647 4.504 122.045 4.882 122.045 5.526C122.045 6.128 122.423 6.408 123.319 6.576L124.579 6.814C126.049 7.08 126.749 7.724 126.749 8.788Z" fill="url(#paint0_linear_220_375)"/>
<defs>
<linearGradient id="paint0_linear_220_375" x1="0" y1="5.5" x2="128" y2="5.5" gradientUnits="userSpaceOnUse">
<stop stop-color="#2744C8"/>
<stop offset="1" stop-color="#8441F1"/>
</linearGradient>
</defs>
</svg>
