<svg width="15" height="12" viewBox="0 0 15 12" fill="none" xmlns="http://www.w3.org/2000/svg">
<path d="M14.2785 1.6296C13.7429 1.89785 13.2073 1.98727 12.5824 2.07669C13.2073 1.71902 13.6536 1.18251 13.8321 0.467166C13.2966 0.824838 12.6717 1.00367 11.9576 1.18251C11.422 0.646002 10.6186 0.28833 9.81522 0.28833C8.29772 0.28833 6.95875 1.6296 6.95875 3.23912C6.95875 3.50738 6.95875 3.68621 7.04801 3.86505C4.63786 3.77563 2.40624 2.6132 0.978007 0.824838C0.710212 1.27193 0.620947 1.71902 0.620947 2.34494C0.620947 3.32854 1.15654 4.22272 1.95992 4.75923C1.5136 4.75923 1.06727 4.5804 0.620947 4.40156C0.620947 5.83225 1.60286 6.99468 2.94183 7.26294C2.67404 7.35235 2.40624 7.35235 2.13845 7.35235C1.95992 7.35235 1.78139 7.35235 1.60286 7.26294C1.95992 8.42537 3.0311 9.31955 4.37007 9.31955C3.38816 10.1243 2.13845 10.5714 0.710212 10.5714C0.442418 10.5714 0.263888 10.5714 -0.00390625 10.5714C1.33507 11.3762 2.85257 11.9127 4.45933 11.9127C9.81522 11.9127 12.761 7.44177 12.761 3.5968C12.761 3.50738 12.761 3.32854 12.761 3.23912C13.3858 2.79203 13.9214 2.25553 14.2785 1.6296Z" fill="#1E2532"/>
</svg>
